:FULLY-SPECIFIED
:FORCE-ALL-JOINTS-BE-3DOF
:DEGREES
442
root 1.48949 15.2316 -9.1147 5.49212 4.83139 -13.5423
lfemur -46.8501 16.8114 3.9745
ltibia 62.9553 0 0
lfoot -24.9916 -10.2701 0
ltoes -12.7255 0 0
rfemur -14.9411 -3.44768 8.90199
rtibia 38.8284 0 0
rfoot -14.6389 -13.9723 0
rtoes -49.791 0 0
lowerback 6.02945 1.6015 4.3986
upperback 1.01281 2.43843 0.924751
thorax -2.1908 1.18676 -1.7001
lowerneck -7.15866 0.0337935 5.62298
upperneck 0.687406 -0.434285 0.0690367
head 1.41974 -0.189785 -0.949097
lclavicle 2.90226e-14 6.36111e-15 0
lhumerus -39.6318 -28.4329 97.6213
lradius 54.1431 0 0
lwrist 7.92235 0 0
lhand -20.0855 -1.30814 0
lfingers 7.12502 0 0
lthumb 6.25724 28.5794 0
rclavicle 2.90226e-14 6.36111e-15 0
rhumerus -48.3514 -2.52445 -89.7222
rradius 66.3347 0 0
rwrist 12.906 0 0
rhand -30.9208 -29.1118 0
rfingers 7.12502 0 0
rthumb -4.20662 -779.05 0
443
root 1.44341 15.2337 -9.00872 5.54095 8.25985 -13.9253
lfemur -47.9816 17.2423 3.30888
ltibia 63.1041 0 0
lfoot -24.9877 -10.6916 0
ltoes -11.9511 0 0
rfemur -13.0416 -3.21151 9.00785
rtibia 37.9075 0 0
rfoot -13.6106 -14.6248 0
rtoes -52.4593 0 0
lowerback 5.72152 1.47534 4.548
upperback 0.881291 2.2686 1.08911
thorax -2.16528 1.101 -1.60074
lowerneck -7.23403 -0.348466 5.33301
upperneck 0.635611 -0.92785 0.208638
head 1.39505 -0.436266 -0.873339
lclavicle 2.83496e-14 3.76512e-15 0
lhumerus -39.7772 -28.5539 98.0782
lradius 54.2623 0 0
lwrist 7.33467 0 0
lhand -20.2773 -1.93793 0
lfingers 7.12502 0 0
lthumb 6.07217 27.9556 0
rclavicle 2.83496e-14 3.76512e-15 0
rhumerus -48.7801 -2.93484 -89.3087
rradius 66.0183 0 0
rwrist 12.8143 0 0
rhand -31.0387 -29.5529 0
rfingers 7.12502 0 0
rthumb -4.32049 -779.489 0
444
root 1.40902 15.2402 -8.9147 5.55403 11.2659 -14.2754
lfemur -49.0223 17.7124 2.57971
ltibia 63.2117 0 0
lfoot -24.9378 -10.9612 0
ltoes -11.1189 0 0
rfemur -11.2309 -3.02356 9.15005
rtibia 36.9743 0 0
rfoot -12.3913 -15.239 0
rtoes -54.7185 0 0
lowerback 5.41002 1.36304 4.70103
upperback 0.756174 2.11587 1.2416
thorax -2.13005 1.0239 -1.5168
lowerneck -7.30219 -0.682383 5.08464
upperneck 0.605612 -1.3592 0.319787
head 1.37871 -0.651544 -0.811296
lclavicle 2.67512e-14 1.3483e-15 0
lhumerus -39.9493 -28.5839 98.496
lradius 54.3153 0 0
lwrist 6.78222 0 0
lhand -20.5694 -2.60103 0
lfingers 7.12502 0 0
lthumb 5.79043 27.3049 0
rclavicle 2.67512e-14 1.3483e-15 0
rhumerus -49.2062 -3.32525 -88.851
rradius 65.7105 0 0
rwrist 12.6765 0 0
rhand -31.1708 -29.9398 0
rfingers 7.12502 0 0
rthumb -4.44803 -779.875 0
445
root 1.38602 15.251 -8.83138 5.53513 13.8912 -14.5916
lfemur -49.9729 18.2095 1.79025
ltibia 63.2774 0 0
lfoot -24.8455 -11.0902 0
ltoes -10.2313 0 0
rfemur -9.51514 -2.87935 9.32465
rtibia 36.0454 0 0
rfoot -10.9979 -15.8109 0
rtoes -56.5896 0 0
lowerback 5.09607 1.26335 4.85557
upperback 0.637149 1.97864 1.38253
thorax -2.08615 0.954663 -1.44667
lowerneck -7.36382 -0.97287 4.87362
upperneck 0.596394 -1.73466 0.405131
head 1.37042 -0.83877 -0.761692
lclavicle 2.4319e-14 -8.97566e-16 0
lhumerus -40.1469 -28.5322 98.8795
lradius 54.3087 0 0
lwrist 6.26363 0 0
lhand -20.946 -3.29091 0
lfingers 7.12502 0 0
lthumb 5.42734 26.6328 0
rclavicle 2.4319e-14 -8.97566e-16 0
rhumerus -49.6285 -3.69304 -88.3559
rradius 65.4117 0 0
rwrist 12.4996 0 0
rhand -31.3133 -30.2745 0
rfingers 7.12502 0 0
rthumb -4.58566 -780.208 0
446
root 1.37407 15.266 -8.7575 5.48804 16.1772 -14.8726
lfemur -50.8336 18.7212 0.943789
ltibia 63.3007 0 0
lfoot -24.7149 -11.0904 0
ltoes -9.29059 0 0
rfemur -7.90056 -2.77437 9.52771
rtibia 35.137 0 0
rfoot -9.44709 -16.3367 0
rtoes -58.0933 0 0
lowerback 4.78083 1.17498 5.00946
upperback 0.523911 1.85529 1.51218
thorax -2.03463 0.892488 -1.38874
lowerneck -7.41961 -1.22484 4.6957
upperneck 0.606942 -2.06053 0.467317
head 1.36984 -1.00109 -0.723247
lclavicle 2.11447e-14 -2.98071e-15 0
lhumerus -40.3689 -28.4076 99.2335
lradius 54.2492 0 0
lwrist 5.77751 0 0
lhand -21.3911 -4.00101 0
lfingers 7.12502 0 0
lthumb 4.99825 25.9448 0
rclavicle 2.11447e-14 -2.98071e-15 0
rhumerus -50.0456 -4.03552 -87.8297
rradius 65.1223 0 0
rwrist 12.2906 0 0
rhand -31.4625 -30.5594 0
rfingers 7.12502 0 0
rthumb -4.72976 -780.491 0
447
root 1.37287 15.2848 -8.6918 5.41653 18.1654 -15.1173
lfemur -51.605 19.2353 0.0436041
ltibia 63.2811 0 0
lfoot -24.5496 -10.9733 0
ltoes -8.29913 0 0
rfemur -6.39333 -2.70415 9.75529
rtibia 34.2657 0 0
rfoot -7.75574 -16.8126 0
rtoes -59.2506 0 0
lowerback 4.46544 1.09669 5.16058
upperback 0.416149 1.74423 1.63086
thorax -1.97653 0.83657 -1.34142
lowerneck -7.47024 -1.44321 4.54664
upperneck 0.63624 -2.34312 0.508992
head 1.37664 -1.14166 -0.694685
lclavicle 1.73197e-14 -4.90935e-15 0
lhumerus -40.614 -28.2192 99.5628
lradius 54.1437 0 0
lwrist 5.32247 0 0
lhand -21.8887 -4.72481 0
lfingers 7.12502 0 0
lthumb 4.51848 25.2464 0
rclavicle 1.73197e-14 -4.90935e-15 0
rhumerus -50.4562 -4.35003 -87.2791
rradius 64.8428 0 0
rwrist 12.0562 0 0
rhand -31.6147 -30.7966 0
rfingers 7.12502 0 0
rthumb -4.87676 -780.727 0
448
root 1.3821 15.3075 -8.63302 5.32438 19.8975 -15.3245
lfemur -52.2876 19.7394 -0.907028
ltibia 63.2179 0 0
lfoot -24.3536 -10.7504 0
ltoes -7.25928 0 0
rfemur -4.99965 -2.66419 10.0035
rtibia 33.448 0 0
rfoot -5.94064 -17.2347 0
rtoes -60.0823 0 0
lowerback 4.15102 1.02719 5.30679
upperback 0.313558 1.64384 1.73886
thorax -1.9129 0.786106 -1.30311
lowerneck -7.51641 -1.6329 4.42219
upperneck 0.683274 -2.58877 0.532805
head 1.3905 -1.26363 -0.674728
lclavicle 1.29357e-14 -6.69173e-15 0
lhumerus -40.8811 -27.9761 99.8723
lradius 53.9987 0 0
lwrist 4.89714 0 0
lhand -22.4231 -5.45575 0
lfingers 7.12502 0 0
lthumb 4.00338 24.5431 0
rclavicle 1.29357e-14 -6.69173e-15 0
rhumerus -50.8591 -4.6339 -86.7107
rradius 64.5735 0 0
rwrist 11.8035 0 0
rhand -31.7662 -30.9883 0
rfingers 7.12502 0 0
rthumb -5.02307 -780.918 0
449
root 1.40144 15.3337 -8.57992 5.21535 21.4149 -15.4932
lfemur -52.8819 20.2211 -1.90483
ltibia 63.1107 0 0
lfoot -24.1307 -10.4333 0
ltoes -6.1734 0 0
rfemur -3.72569 -2.64999 10.2683
rtibia 32.7001 0 0
rfoot -4.0186 -17.5992 0
rtoes -60.6094 0 0
lowerback 3.83873 0.96523 5.44594
upperback 0.215828 1.55252 1.83647
thorax -1.84479 0.740293 -1.2722
lowerneck -7.55878 -1.79882 4.31812
upperneck 0.747028 -2.80377 0.5414
head 1.4111 -1.37014 -0.662097
lclavicle 8.08415e-15 -8.33605e-15 0
lhumerus -41.169 -27.6871 100.167
lradius 53.821 0 0
lwrist 4.50011 0 0
lhand -22.9782 -6.1873 0
lfingers 7.12502 0 0
lthumb 3.46827 23.8403 0
rclavicle 8.08415e-15 -8.33605e-15 0
rhumerus -51.2529 -4.88447 -86.1311
rradius 64.315 0 0
rwrist 11.5392 0 0
rhand -31.9133 -31.1368 0
rfingers 7.12502 0 0
rthumb -5.16508 -781.065 0
450
root 1.43057 15.3633 -8.53122 5.09324 22.7592 -15.6222
lfemur -53.3882 20.6683 -2.94652
ltibia 62.9589 0 0
lfoot -23.8847 -10.0335 0
ltoes -5.04385 0 0
rfemur -2.57765 -2.65707 10.5459
rtibia 32.0387 0 0
rfoot -2.00642 -17.9022 0
rtoes -60.8526 0 0
lowerback 3.52971 0.909531 5.5759
upperback 0.122652 1.46865 1.924
thorax -1.77324 0.698327 -1.24709
lowerneck -7.59806 -1.94588 4.23017
upperneck 0.826486 -2.99445 0.537427
head 1.4381 -1.46435 -0.655515
lclavicle 2.85667e-15 -9.85056e-15 0
lhumerus -41.4766 -27.3614 100.451
lradius 53.6174 0 0
lwrist 4.13002 0 0
lhand -23.5381 -6.91292 0
lfingers 7.12502 0 0
lthumb 2.9285 23.1436 0
rclavicle 2.85667e-15 -9.85056e-15 0
rhumerus -51.6365 -5.09906 -85.5467
rradius 64.0677 0 0
rwrist 11.2704 0 0
rhand -32.0521 -31.2442 0
rfingers 7.12502 0 0
rthumb -5.29921 -781.171 0
451
root 1.46917 15.3961 -8.48567 4.96181 23.972 -15.7103
lfemur -53.8071 21.0685 -4.02882
ltibia 62.762 0 0
lfoot -23.6195 -9.56263 0
ltoes -3.87297 0 0
rfemur -1.56171 -2.68093 10.8322
rtibia 31.4801 0 0
rfoot 0.0791045 -18.1398 0
rtoes -60.8329 0 0
lowerback 3.22509 0.858831 5.69454
upperback 0.0337227 1.39063 2.00174
thorax -1.69929 0.659405 -1.22618
lowerneck -7.63493 -2.079 4.1541
upperneck 0.920634 -3.16711 0.523532
head 1.47117 -1.54941 -0.653704
lclavicle -2.65516e-15 -1.12435e-14 0
lhumerus -41.8026 -27.0079 100.73
lradius 53.3945 0 0
lwrist 3.78548 0 0
lhand -24.087 -7.62605 0
lfingers 7.12502 0 0
lthumb 2.3994 22.4585 0
rclavicle -2.65516e-15 -1.12435e-14 0
rhumerus -52.0083 -5.27501 -84.9643
rradius 63.8319 0 0
rwrist 11.0039 0 0
rhand -32.1791 -31.3128 0
rfingers 7.12502 0 0
rthumb -5.42187 -781.239 0
452
root 1.51694 15.4319 -8.44202 4.82484 25.0947 -15.7564
lfemur -54.139 21.4094 -5.14846
ltibia 62.5193 0 0
lfoot -23.3389 -9.03222 0
ltoes -2.66313 0 0
rfemur -0.684072 -2.71708 11.1234
rtibia 31.0408 0 0
rfoot 2.22116 -18.3083 0
rtoes -60.5711 0 0
lowerback 2.92602 0.811861 5.7997
upperback -0.0512685 1.31685 2.06999
thorax -1.62401 0.622724 -1.20786
lowerneck -7.67006 -2.20309 4.08567
upperneck 1.02846 -3.32807 0.502362
head 1.51 -1.62846 -0.655386
lclavicle -8.3598e-15 -1.2523e-14 0
lhumerus -42.146 -26.6358 101.008
lradius 53.1591 0 0
lwrist 3.46509 0 0
lhand -24.6088 -8.32018 0
lfingers 7.12502 0 0
lthumb 1.8963 21.7904 0
rclavicle -8.3598e-15 -1.2523e-14 0
rhumerus -52.3673 -5.40966 -84.3904
rradius 63.6081 0 0
rwrist 10.7466 0 0
rhand -32.2905 -31.3448 0
rfingers 7.12502 0 0
rthumb -5.52946 -781.27 0
453
root 1.57354 15.4706 -8.39901 4.6861 26.169 -15.7593
lfemur -54.3845 21.6788 -6.30215
ltibia 62.2303 0 0
lfoot -23.0467 -8.45384 0
ltoes -1.41667 0 0
rfemur 0.0490902 -2.76102 11.4155
rtibia 30.7372 0 0
rfoot 4.40294 -18.4037 0
rtoes -60.0881 0 0
lowerback 2.63363 0.767355 5.88926
upperback -0.132629 1.24571 2.12903
thorax -1.54842 0.587481 -1.19053
lowerneck -7.70416 -2.32308 4.02062
upperneck 1.14894 -3.48365 0.476564
head 1.55426 -1.70466 -0.659284
lclavicle -1.41657e-14 -1.36974e-14 0
lhumerus -42.5054 -26.2539 101.29
lradius 52.9178 0 0
lwrist 3.16748 0 0
lhand -25.0877 -8.98874 0
lfingers 7.12502 0 0
lthumb 1.43454 21.1449 0
rclavicle -1.41657e-14 -1.36974e-14 0
rhumerus -52.712 -5.50033 -83.8315
rradius 63.3968 0 0
rwrist 10.5055 0 0
rhand -32.3826 -31.3423 0
rfingers 7.12502 0 0
rthumb -5.61839 -781.267 0
454
root 1.63867 15.5119 -8.35537 4.54938 27.2363 -15.718
lfemur -54.544 21.8643 -7.48663
ltibia 61.8945 0 0
lfoot -22.7468 -7.83905 0
ltoes -0.135949 0 0
rfemur 0.631583 -2.80828 11.7046
rtibia 30.5857 0 0
rfoot 6.60765 -18.4222 0
rtoes -59.4047 0 0
lowerback 2.34908 0.724046 5.96108
upperback -0.210667 1.17559 2.17918
thorax -1.47358 0.552872 -1.1726
lowerneck -7.73789 -2.44386 3.95473
upperneck 1.28106 -3.64016 0.448786
head 1.60361 -1.78116 -0.664119
lclavicle -1.99812e-14 -1.47749e-14 0
lhumerus -42.8799 -25.8713 101.581
lradius 52.6775 0 0
lwrist 2.89127 0 0
lhand -25.5078 -9.6252 0
lfingers 7.12502 0 0
lthumb 1.02946 20.5273 0
rclavicle -1.99812e-14 -1.47749e-14 0
rhumerus -53.0412 -5.54436 -83.2942
rradius 63.1983 0 0
rwrist 10.2874 0 0
rhand -32.4517 -31.3076 0
rfingers 7.12502 0 0
rthumb -5.68507 -781.232 0
